<?xml version="1.0" encoding="iso-8859-1"?>
<!-- Uploaded to: SVG Repo, www.svgrepo.com, Generator: SVG Repo Mixer Tools -->
<svg version="1.1" id="Layer_1" xmlns="http://www.w3.org/2000/svg" xmlns:xlink="http://www.w3.org/1999/xlink" 
	 viewBox="0 0 392.663 392.663" xml:space="preserve">
<g>
	<path style="fill:#FFFFFF;" d="M294.335,174.093V21.915H21.851v174.998h54.691v-12.024c0-6.012,4.848-10.925,10.925-10.925h206.869
		L294.335,174.093L294.335,174.093z"/>
	<rect x="98.327" y="195.879" style="fill:#FFFFFF;" width="272.485" height="174.998"/>
</g>
<path style="fill:#FFC10D;" d="M120.113,348.057v-129.81c1.681,0,3.103-1.422,3.103-3.103h222.642c0,1.681,1.422,3.103,3.103,3.103
	v129.81c-1.681,0-3.103,1.422-3.103,3.103H123.216C123.216,349.479,121.859,348.057,120.113,348.057z"/>
<path d="M235.96,294.271L235.96,294.271C235.636,294.271,235.895,294.271,235.96,294.271z"/>
<path d="M234.473,272.356C234.473,272.356,234.602,272.42,234.473,272.356C234.861,272.356,234.602,272.356,234.473,272.356z"/>
<g>
	<path style="fill:#194F82;" d="M234.602,315.927c-6.465,0-11.83-5.301-11.83-11.83c0-4.913-4.008-9.051-9.051-9.051
		c-4.913,0-9.051,4.008-9.051,9.051c0,13.317,8.727,24.63,20.881,28.444v5.042c0,4.978,4.008,9.051,9.05,9.051
		c4.913,0,9.051-4.008,9.051-9.051v-5.042c12.024-3.879,20.881-15.127,20.881-28.444c0-16.485-13.382-29.802-29.802-29.802
		c-0.129,0-0.065,0-0.065,0c-5.947-0.646-11.766-5.56-11.766-11.636c0-6.465,5.301-11.83,11.83-11.83
		c6.529,0,11.83,5.301,11.83,11.83c0,4.913,4.008,9.051,9.051,9.051c4.913,0,9.051-4.008,9.051-9.051
		c0-13.317-8.792-24.63-20.881-28.444v-5.042c0-4.913-4.008-9.051-9.051-9.051c-4.913,0-9.051,4.008-9.051,9.051v5.042
		c-12.024,3.879-20.881,15.127-20.881,28.444c0,16.485,14.545,29.737,30.966,29.737c0.129,0,0.065,0,0.065,0
		c5.947,0.646,10.667,5.624,10.667,11.766C246.432,310.691,241.067,315.927,234.602,315.927z"/>
	<path style="fill:#194F82;" d="M381.737,174.093h-65.616V10.99c0-6.012-4.849-10.925-10.925-10.925H10.925
		C4.913,0.065,0,4.913,0,10.99v196.784c0,6.012,4.848,10.925,10.925,10.925h65.616v162.974c0,6.012,4.848,10.925,10.925,10.925
		h294.271c6.012,0,10.925-4.848,10.925-10.925V184.954C392.598,178.941,387.749,174.093,381.737,174.093z M76.541,184.954v12.089
		H21.851V21.915h272.485v152.048H87.467C81.455,174.093,76.541,178.941,76.541,184.954z M370.812,370.877H98.327V195.879h272.485
		V370.877z"/>
</g>
<path style="fill:#56ACE0;" d="M87.467,174.093h163.556c1.616-10.537,10.602-18.554,21.463-18.554V63.095
	c-12.024,0-21.786-9.762-21.786-21.786H65.487c0,12.024-9.762,21.786-21.786,21.786v92.444c12.024,0,21.786,9.762,21.786,21.786
	h14.158C81.648,175.321,84.428,174.093,87.467,174.093z"/>
<g>
	<path style="fill:#194F82;" d="M322.78,297.374c4.913,0,9.05-4.008,9.05-9.051v-10.02c0-4.913-4.008-9.051-9.051-9.051
		c-4.913,0-9.051,4.008-9.051,9.051v10.02C313.729,293.366,317.737,297.374,322.78,297.374z"/>
	<path style="fill:#194F82;" d="M146.424,297.374c4.913,0,9.051-4.008,9.051-9.051v-10.02c0-4.913-4.008-9.051-9.051-9.051
		c-5.042,0-9.051,4.008-9.051,9.051v10.02C137.374,293.366,141.446,297.374,146.424,297.374z"/>
	<path style="fill:#194F82;" d="M187.281,83.135c2.909-4.008,2.133-9.632-1.875-12.606c-4.008-2.909-9.632-2.133-12.606,1.875
		l-14.739,19.846l-14.739-19.846c-2.909-4.008-8.663-4.848-12.606-1.875c-4.008,2.909-4.848,8.663-1.875,12.606l20.234,27.216v3.62
		h-12.735c-4.913,0-9.051,4.008-9.051,9.05s4.008,9.051,9.051,9.051h12.8v8.857c0,4.913,4.008,9.051,9.051,9.051
		c4.913,0,9.051-4.008,9.051-9.051v-8.857h12.735c4.913,0,9.051-4.008,9.051-9.051s-4.008-9.05-9.051-9.05H167.24v-3.62
		L187.281,83.135z"/>
	<path style="fill:#194F82;" d="M246.238,95.224c-4.913,0-9.051,4.008-9.051,9.05v10.02c0,4.913,4.008,9.051,9.051,9.051
		c4.913,0,9.051-4.008,9.051-9.051v-10.02C255.289,99.232,251.216,95.224,246.238,95.224z"/>
	<path style="fill:#194F82;" d="M69.883,95.224c-4.978,0-9.051,4.008-9.051,9.05v10.02c0,4.913,4.008,9.051,9.051,9.051
		c4.978,0,9.051-4.008,9.051-9.051v-10.02C78.933,99.232,74.925,95.224,69.883,95.224z"/>
</g>
</svg>